<?xml version="1.0" encoding="UTF-8"?>
<svg id="Layer_1" xmlns="http://www.w3.org/2000/svg" version="1.1" viewBox="0 0 300 200" width="300" height="200">
  <!-- Generator: Adobe Illustrator 29.5.0, SVG Export Plug-In . SVG Version: 2.1.0 Build 137)  -->
  <defs>
    <style>
      .st0 {
        fill: #fd5108;
      }
    </style>
  </defs>
  <path d="M199.55,92.08c-7.27,1.17-10.99,6.55-10.99,16s4.95,15.87,12.54,15.87c3.53,0,6.74-1.17,13.49-4.48v7.69c-8.1,3.71-12.86,4.86-19.39,4.86-7.06,0-12.03-1.88-16.09-6.01-4.16-4.16-6.24-9.66-6.24-15.77,0-13.61,10.08-22.82,24.79-22.82,9.78,0,16.5,4.47,16.5,11.03,0,4.22-3.13,7.13-7.77,7.13-2.38,0-4.34-.62-6.85-2.08v-11.41ZM163.67,110.23c6.52-8.22,8.82-11.53,8.82-15.57s-3.19-7.25-7.45-7.25c-2.62,0-4.99,1.24-6.14,2.53v16.74l-10.68,14.23v-32.45h-10.16l-16.88,27.99v-27.99h-5.84l-15.33,3.74v3.92l8.36.85v34.32h10.8l16.19-26.61v26.61h11.83l16.46-21.06ZM67.75,97.19c2.48-.3,3.72-.44,4.89-.44,7.05,0,10.86,4.68,10.86,13.49,0,10.4-4.67,15.83-13.37,15.83-.73,0-1.23,0-2.38-.05v-28.82ZM67.75,130.87c2.81.32,5.53.42,7.17.42,14.48,0,23.66-9.27,23.66-23.04,0-11.91-6.89-20.52-16.21-20.52-4.04,0-6.74.83-14.62,5.52v-5.73h-4.36l-16.82,5.11v4.12h6.96v48.02l-6.26,1.56v3.98h27.49v-3.98s-7.01-1.56-7.01-1.56v-13.89Z"/>
  <path class="st0" d="M191.74,75.51h-45.86l7.81-12.95h45.86l-7.81,12.95ZM253.22,49.6h-45.86l-7.81,12.95h45.86l7.81-12.95Z"/>
</svg>